<svg width="43" height="43" viewBox="0 0 43 43" fill="none" xmlns="http://www.w3.org/2000/svg">
<path d="M28.8232 13.2208L18.4282 8.79688L22.8534 19.1909L24.8472 17.1606L27.2144 19.5278L29.0402 17.7021L26.6719 15.3337L28.8232 13.2208Z" fill="#EFF0FF"/>
<path d="M19.6091 12.1535H9.59212C9.43741 12.1535 9.28905 12.092 9.17965 11.9826C9.07026 11.8732 9.00879 11.7249 9.00879 11.5701C9.00879 11.4154 9.07026 11.2671 9.17965 11.1577C9.28905 11.0483 9.43741 10.9868 9.59212 10.9868H19.6091C19.7638 10.9868 19.9122 11.0483 20.0216 11.1577C20.131 11.2671 20.1925 11.4154 20.1925 11.5701C20.1925 11.7249 20.131 11.8732 20.0216 11.9826C19.9122 12.092 19.7638 12.1535 19.6091 12.1535Z" fill="#2A2C38"/>
<path d="M31.7727 29.3592H17.6922C16.0759 29.3633 14.5109 28.7923 13.2771 27.7482C12.0434 26.704 11.2213 25.2548 10.9582 23.66L7.93536 5.02279C7.89273 4.76606 7.76018 4.53282 7.56142 4.36483C7.36265 4.19684 7.11062 4.10489 6.85037 4.10564H1.85238C1.77577 4.10564 1.69991 4.09052 1.62914 4.0612C1.55837 4.03189 1.49404 3.98891 1.43987 3.93474C1.3857 3.88057 1.34272 3.81639 1.31341 3.74561C1.28409 3.67484 1.26904 3.59891 1.26904 3.52231C1.26904 3.3676 1.33047 3.21927 1.43987 3.10987C1.54927 3.00048 1.69767 2.93898 1.85238 2.93898H6.85037C7.38884 2.93735 7.9103 3.12751 8.32138 3.47531C8.73246 3.82311 9.00631 4.30578 9.09388 4.83708L12.1167 23.4757C12.3347 24.796 13.0153 25.9957 14.0368 26.8601C15.0583 27.7245 16.3541 28.1971 17.6922 28.1937H31.7727C33.2716 28.1918 34.7085 27.5955 35.7684 26.5357C36.8283 25.4758 37.4245 24.039 37.4264 22.5401V12.1569H25.2125C25.0578 12.1569 24.9094 12.0954 24.8 11.986C24.6907 11.8766 24.6292 11.7283 24.6292 11.5736C24.6292 11.4189 24.6907 11.2703 24.8 11.1609C24.9094 11.0515 25.0578 10.9902 25.2125 10.9902H38.0132C38.1679 10.9902 38.3163 11.0515 38.4257 11.1609C38.5351 11.2703 38.5965 11.4189 38.5965 11.5736V22.5401C38.5925 24.3482 37.8722 26.081 36.5932 27.3591C35.3142 28.6372 33.5808 29.3564 31.7727 29.3592Z" fill="#2A2C38"/>
<path d="M35.3335 34.1218H7.81066C7.24215 34.124 6.68984 33.9324 6.24456 33.579C5.79928 33.2255 5.48755 32.7309 5.36066 32.1767L5.15067 31.2693C5.06413 30.9008 5.06242 30.5174 5.14568 30.1482C5.22895 29.779 5.395 29.4333 5.63132 29.1376C5.86608 28.8407 6.16524 28.6009 6.50618 28.4364C6.84711 28.2719 7.22095 28.187 7.5995 28.188H23.3238C23.4785 28.188 23.6269 28.2495 23.7363 28.3589C23.8457 28.4683 23.9072 28.6166 23.9072 28.7713C23.9072 28.926 23.8457 29.0744 23.7363 29.1838C23.6269 29.2932 23.4785 29.3547 23.3238 29.3547H7.60067C7.39864 29.3542 7.19913 29.3998 7.01723 29.4877C6.83534 29.5756 6.67582 29.7036 6.55068 29.8622C6.4244 30.0197 6.33564 30.2039 6.29116 30.4008C6.24669 30.5977 6.24768 30.8022 6.29401 30.9987L6.504 31.9062C6.57156 32.2019 6.73774 32.466 6.97522 32.6547C7.2127 32.8434 7.50733 32.9456 7.81066 32.9446H35.3335C35.4882 32.9446 35.6366 33.0059 35.746 33.1153C35.8554 33.2247 35.9168 33.3733 35.9168 33.528C35.9182 33.6055 35.9042 33.6824 35.8755 33.7544C35.8468 33.8264 35.8041 33.892 35.7497 33.9472C35.6954 34.0025 35.6307 34.0463 35.5592 34.0763C35.4877 34.1062 35.411 34.1219 35.3335 34.1218Z" fill="#2A2C38"/>
<path d="M14.2567 40.5742C13.2457 40.5733 12.2764 40.1713 11.5614 39.4565C10.8464 38.7417 10.4441 37.7725 10.4429 36.7615C10.4441 35.7505 10.8464 34.7812 11.5614 34.0664C12.2764 33.3516 13.2457 32.9497 14.2567 32.9487C15.2676 32.9497 16.2368 33.3519 16.9516 34.0667C17.6665 34.7815 18.0685 35.7506 18.0694 36.7615C18.0685 37.7723 17.6665 38.7417 16.9516 39.4565C16.2368 40.1713 15.2676 40.5733 14.2567 40.5742ZM14.2567 34.1225C13.5567 34.1231 12.8855 34.4014 12.3905 34.8964C11.8955 35.3914 11.6172 36.0626 11.6166 36.7626C11.6172 37.4626 11.8955 38.1338 12.3905 38.6288C12.8855 39.1238 13.5567 39.4021 14.2567 39.4027C14.9565 39.4018 15.6274 39.1235 16.1221 38.6285C16.6169 38.1336 16.8951 37.4624 16.8957 36.7626C16.8954 36.0626 16.6173 35.3913 16.1226 34.8961C15.6278 34.4009 14.9567 34.1234 14.2567 34.1225Z" fill="#2A2C38"/>
<path d="M31.7897 40.5742C30.7788 40.5733 29.8096 40.1713 29.0948 39.4565C28.3799 38.7417 27.978 37.7723 27.9771 36.7615C27.978 35.7506 28.3799 34.7815 29.0948 34.0667C29.8096 33.3519 30.7788 32.9497 31.7897 32.9487C32.8005 32.95 33.7695 33.3522 34.4843 34.067C35.199 34.7817 35.6011 35.7507 35.6024 36.7615C35.6011 37.7723 35.199 38.7412 34.4843 39.4559C33.7695 40.1707 32.8005 40.5729 31.7897 40.5742ZM31.7897 34.1225C31.0899 34.1234 30.419 34.402 29.9243 34.897C29.4295 35.3919 29.1513 36.0628 29.1507 36.7626C29.1513 37.4624 29.4295 38.1336 29.9243 38.6285C30.419 39.1235 31.0899 39.4018 31.7897 39.4027C32.4897 39.4021 33.1609 39.1238 33.6559 38.6288C34.1509 38.1338 34.4292 37.4626 34.4299 36.7626C34.4295 36.0624 34.1514 35.3911 33.6563 34.8958C33.1613 34.4006 32.4899 34.1231 31.7897 34.1225Z" fill="#2A2C38"/>
<path d="M27.2169 20.1147C27.1398 20.115 27.0633 20.1 26.992 20.0705C26.9208 20.0411 26.856 19.9978 26.8016 19.9432L24.8521 17.995L23.2735 19.6014C23.2061 19.6706 23.1225 19.722 23.0302 19.7509C22.938 19.7799 22.84 19.7855 22.7451 19.7672C22.6501 19.7486 22.5612 19.7069 22.4861 19.6458C22.4111 19.5848 22.3521 19.5063 22.3146 19.4171L17.8894 9.02341C17.8438 8.91563 17.8313 8.79652 17.8535 8.68161C17.8757 8.56671 17.9317 8.46125 18.0142 8.37827C18.0968 8.29505 18.2025 8.23847 18.3176 8.2162C18.4326 8.19393 18.5518 8.20681 18.6594 8.25323L29.0544 12.6786C29.1439 12.7157 29.2228 12.7744 29.2839 12.8495C29.345 12.9247 29.3864 13.0138 29.4044 13.109C29.4221 13.2039 29.4163 13.3017 29.3874 13.3938C29.3585 13.486 29.3075 13.5695 29.2387 13.6374L27.5097 15.3349L29.4604 17.2846C29.5701 17.395 29.6317 17.5442 29.6319 17.6999C29.6322 17.777 29.6172 17.8533 29.5877 17.9246C29.5583 17.9959 29.515 18.0607 29.4604 18.1152L27.6346 19.9398C27.5801 19.9953 27.5151 20.0393 27.4434 20.0694C27.3717 20.0994 27.2947 20.1148 27.2169 20.1147ZM24.8497 16.5739C24.9267 16.5738 25.0029 16.5889 25.074 16.6184C25.145 16.6478 25.2096 16.6909 25.2639 16.7454L27.2169 18.6985L28.2144 17.7022L26.2602 15.7479C26.2053 15.6932 26.1619 15.6283 26.1324 15.5565C26.103 15.4848 26.0881 15.4079 26.0887 15.3304C26.0889 15.253 26.1044 15.1764 26.1345 15.1051C26.1645 15.0338 26.2085 14.9693 26.2637 14.9151L27.7886 13.4169L19.5402 9.90524L23.0507 18.1536L24.4309 16.7537C24.4849 16.6982 24.5495 16.654 24.6208 16.6238C24.6921 16.5935 24.7688 16.5777 24.8462 16.5774L24.8497 16.5739Z" fill="#414DE1"/>
</svg>
